<?xml version="1.0" encoding="UTF-8" standalone="no"?>
<!-- Created with Inkscape (http://www.inkscape.org/) -->

<svg
   width="99.999992mm"
   height="100.00001mm"
   viewBox="0 0 99.999992 100.00001"
   version="1.1"
   id="svg902"
   inkscape:version="1.1.1 (3bf5ae0d25, 2021-09-20)"
   sodipodi:docname="ppn mono black.svg"
   xmlns:inkscape="http://www.inkscape.org/namespaces/inkscape"
   xmlns:sodipodi="http://sodipodi.sourceforge.net/DTD/sodipodi-0.dtd"
   xmlns="http://www.w3.org/2000/svg"
   xmlns:svg="http://www.w3.org/2000/svg">
  <sodipodi:namedview
     id="namedview904"
     pagecolor="#ffffff"
     bordercolor="#cccccc"
     borderopacity="1"
     inkscape:pageshadow="0"
     inkscape:pageopacity="1"
     inkscape:pagecheckerboard="0"
     inkscape:document-units="mm"
     showgrid="false"
     inkscape:zoom="0.73406285"
     inkscape:cx="195.48735"
     inkscape:cy="361.68565"
     inkscape:window-width="1920"
     inkscape:window-height="1009"
     inkscape:window-x="-8"
     inkscape:window-y="-8"
     inkscape:window-maximized="1"
     inkscape:current-layer="layer1" />
  <defs
     id="defs899" />
  <g
     inkscape:label="Lapis 1"
     inkscape:groupmode="layer"
     id="layer1"
     transform="translate(-53.44539,-53.08495)">
    <path
       id="path66378"
       style="color:#000000;fill:#000000;stroke-width:1;-inkscape-stroke:none"
       d="m 122.52912,65.58495 -18.61029,4.18896 c 2.93544,13.03839 1.21244,19.24823 -0.43297,21.67347 -1.6454,2.42525 -4.21708,3.49622 -9.15906,3.66799 -9.88398,0.34353 -24.05224,-5.44566 -24.05224,-5.44566 l -7.83906,17.38948 c 0,0 15.75771,7.70145 32.55306,7.11771 8.39767,-0.29187 18.3557,-3.28759 24.28104,-12.02126 5.92533,-8.73368 6.81479,-20.77922 3.25952,-36.57069 z m -19.08549,-12.5 c -27.5004,0 -49.99824,22.49864 -49.99824,50 0,27.50137 22.49784,50.00001 49.99824,50.00001 27.50039,0 50.00175,-22.49864 50.00175,-50.00001 0,-27.50136 -22.50136,-50 -50.00175,-50 z m 0,19.07561 c 17.19217,0 30.92681,13.73161 30.92681,30.92439 0,17.19278 -13.73464,30.92791 -30.92681,30.92791 -17.19218,0 -30.9233,-13.73513 -30.9233,-30.92791 0,-17.19278 13.73112,-30.92439 30.9233,-30.92439 z" />
  </g>
</svg>
